<?xml version="1.0" encoding="UTF-8"?>
<svg id="Layer_2" data-name="Layer 2" xmlns="http://www.w3.org/2000/svg" viewBox="0 0 430.24 173.51">
  <defs>
    <style>
      .cls-1 {
        fill: #eb9922;
      }

      .cls-2 {
        fill: #145e64;
      }

      .cls-3 {
        fill: #c3d82e;
      }

      .cls-4 {
        fill: none;
        stroke: #145e64;
        stroke-linecap: round;
        stroke-miterlimit: 10;
        stroke-width: 1.93px;
      }
    </style>
  </defs>
  <g id="Layer_1-2" data-name="Layer 1">
    <g>
      <g>
        <path class="cls-1" d="m2.39,114.1c-.66,0-1.23-.23-1.69-.7-.47-.46-.7-1.03-.7-1.69V46.91c0-.73.23-1.33.7-1.79.46-.46,1.03-.7,1.69-.7h7.66c.93,0,1.61.22,2.04.65.43.43.71.75.85.95l28.67,44.6v-43.7c0-.73.21-1.33.65-1.79.43-.46,1.01-.7,1.74-.7h8.36c.73,0,1.33.23,1.79.7.46.47.7,1.06.7,1.79v64.7c0,.73-.23,1.33-.7,1.79-.47.46-1.03.7-1.69.7h-7.76c-.93,0-1.59-.23-1.99-.7-.4-.46-.7-.76-.9-.9l-28.57-43.6v42.8c0,.66-.23,1.23-.7,1.69-.47.46-1.06.7-1.79.7H2.39Z"/>
        <path class="cls-1" d="m84.21,115.09c-3.45,0-6.57-.68-9.36-2.04-2.79-1.36-4.99-3.18-6.62-5.47-1.63-2.29-2.44-4.86-2.44-7.71,0-4.64,1.89-8.34,5.67-11.1,3.78-2.75,8.73-4.59,14.83-5.52l13.64-1.99v-2.09c0-2.79-.7-4.94-2.09-6.47-1.39-1.53-3.78-2.29-7.17-2.29-2.39,0-4.33.48-5.82,1.44-1.49.96-2.6,2.24-3.33,3.83-.53.86-1.29,1.29-2.29,1.29h-7.86c-.73,0-1.28-.2-1.64-.6-.37-.4-.55-.93-.55-1.59.07-1.06.51-2.35,1.34-3.88.83-1.53,2.09-3,3.78-4.43,1.69-1.43,3.9-2.64,6.62-3.63,2.72-1,6.01-1.49,9.85-1.49,4.18,0,7.71.51,10.6,1.54,2.89,1.03,5.19,2.41,6.92,4.13,1.72,1.73,2.99,3.75,3.78,6.07.8,2.32,1.19,4.78,1.19,7.37v31.26c0,.66-.23,1.23-.7,1.69-.47.46-1.03.7-1.69.7h-8.06c-.73,0-1.31-.23-1.74-.7-.43-.46-.65-1.03-.65-1.69v-3.88c-.86,1.19-2.03,2.36-3.48,3.48-1.46,1.13-3.24,2.04-5.33,2.74-2.09.7-4.56,1.05-7.42,1.05Zm3.38-9.46c2.32,0,4.43-.5,6.32-1.49,1.89-.99,3.38-2.54,4.48-4.63,1.1-2.09,1.64-4.73,1.64-7.91v-2.09l-9.95,1.59c-3.92.6-6.84,1.56-8.76,2.89-1.93,1.33-2.89,2.95-2.89,4.88,0,1.46.45,2.7,1.34,3.73.9,1.03,2.04,1.79,3.43,2.29,1.39.5,2.85.75,4.38.75Z"/>
        <path class="cls-1" d="m148.91,114.1c-3.98,0-7.33-.7-10.05-2.09-2.72-1.39-4.75-3.47-6.07-6.22-1.33-2.75-1.99-6.19-1.99-10.3v-22.6h-7.86c-.66,0-1.23-.23-1.69-.7-.47-.46-.7-1.06-.7-1.79v-5.67c0-.66.23-1.23.7-1.69.46-.46,1.03-.7,1.69-.7h7.86v-16.52c0-.66.21-1.23.65-1.69.43-.46,1.01-.7,1.74-.7h8.06c.66,0,1.23.23,1.69.7.46.46.7,1.03.7,1.69v16.52h12.44c.66,0,1.23.23,1.69.7.46.47.7,1.03.7,1.69v5.67c0,.73-.23,1.33-.7,1.79-.47.47-1.03.7-1.69.7h-12.44v21.6c0,2.72.48,4.84,1.44,6.37.96,1.53,2.64,2.29,5.03,2.29h6.87c.66,0,1.23.23,1.69.7.46.47.7,1.03.7,1.69v6.17c0,.66-.23,1.23-.7,1.69-.47.46-1.03.7-1.69.7h-8.06Z"/>
        <path class="cls-1" d="m187.44,115.09c-4.05,0-7.55-.91-10.5-2.74-2.95-1.83-5.23-4.41-6.82-7.76-1.59-3.35-2.39-7.32-2.39-11.9v-27.97c0-.66.23-1.23.7-1.69.46-.46,1.03-.7,1.69-.7h8.76c.73,0,1.31.23,1.74.7.43.47.65,1.03.65,1.69v27.37c0,8.23,3.62,12.34,10.85,12.34,3.45,0,6.19-1.09,8.21-3.28,2.02-2.19,3.04-5.21,3.04-9.06v-27.37c0-.66.23-1.23.7-1.69.46-.46,1.03-.7,1.69-.7h8.76c.66,0,1.23.23,1.69.7.46.47.7,1.03.7,1.69v46.98c0,.66-.23,1.23-.7,1.69-.47.46-1.03.7-1.69.7h-8.06c-.73,0-1.31-.23-1.74-.7-.43-.46-.65-1.03-.65-1.69v-4.08c-1.79,2.32-4.02,4.15-6.67,5.47-2.66,1.33-5.97,1.99-9.95,1.99Z"/>
        <path class="cls-1" d="m239.08,119.75c4.05,0,7.55.91,10.5,2.74,2.95,1.83,5.23,4.41,6.82,7.76,1.59,3.35,2.39,7.32,2.39,11.9v27.97c0,.66-.23,1.23-.7,1.69-.46.46-1.03.7-1.69.7h-8.76c-.73,0-1.31-.23-1.74-.7-.43-.47-.65-1.03-.65-1.69v-27.37c0-8.23-3.62-12.34-10.85-12.34-3.45,0-6.19,1.09-8.21,3.28-2.02,2.19-3.04,5.21-3.04,9.06v27.37c0,.66-.23,1.23-.7,1.69-.46.46-1.03.7-1.69.7h-8.76c-.66,0-1.23-.23-1.69-.7-.46-.47-.7-1.03-.7-1.69v-46.98c0-.66.23-1.23.7-1.69.47-.46,1.03-.7,1.69-.7h8.06c.73,0,1.31.23,1.74.7.43.46.65,1.03.65,1.69v4.08c1.79-2.32,4.02-4.15,6.67-5.47,2.66-1.33,5.97-1.99,9.95-1.99Z"/>
        <path class="cls-1" d="m232.43,114.1c-.66,0-1.23-.23-1.69-.7-.47-.46-.7-1.03-.7-1.69v-46.88c0-.73.23-1.33.7-1.79.46-.46,1.03-.7,1.69-.7h8.06c.66,0,1.24.23,1.74.7.5.47.75,1.06.75,1.79v4.08c1.53-2.12,3.5-3.75,5.92-4.88,2.42-1.13,5.23-1.69,8.41-1.69h4.08c.73,0,1.31.23,1.74.7.43.47.65,1.03.65,1.69v7.17c0,.66-.22,1.23-.65,1.69-.43.47-1.01.7-1.74.7h-7.76c-3.19,0-5.66.88-7.42,2.64-1.76,1.76-2.64,4.23-2.64,7.42v27.37c0,.66-.23,1.23-.7,1.69-.47.46-1.06.7-1.79.7h-8.66Z"/>
        <path class="cls-1" d="m293.15,115.09c-7.37,0-13.21-2.12-17.52-6.37-4.31-4.25-6.64-10.29-6.97-18.12-.07-.66-.1-1.51-.1-2.54s.03-1.84.1-2.44c.26-5.04,1.41-9.37,3.43-12.99,2.02-3.62,4.83-6.4,8.41-8.36,3.58-1.96,7.8-2.94,12.64-2.94,5.38,0,9.89,1.11,13.54,3.33,3.65,2.22,6.4,5.31,8.26,9.26,1.86,3.95,2.79,8.51,2.79,13.69v2.09c0,.66-.23,1.23-.7,1.69-.47.47-1.06.7-1.79.7h-33.05v.8c.07,2.32.51,4.46,1.34,6.42.83,1.96,2.06,3.53,3.68,4.73,1.63,1.19,3.57,1.79,5.82,1.79,1.86,0,3.42-.28,4.68-.85,1.26-.56,2.29-1.21,3.09-1.94.8-.73,1.36-1.33,1.69-1.79.6-.8,1.08-1.28,1.44-1.44.36-.16.91-.25,1.64-.25h8.56c.66,0,1.21.2,1.64.6.43.4.61.9.55,1.49-.07,1.06-.61,2.36-1.64,3.88-1.03,1.53-2.51,3.02-4.43,4.48-1.93,1.46-4.33,2.67-7.22,3.63-2.89.96-6.19,1.44-9.9,1.44Zm-10.95-31.36h22v-.3c0-2.59-.43-4.86-1.29-6.82-.86-1.96-2.12-3.48-3.78-4.58-1.66-1.1-3.65-1.64-5.97-1.64s-4.31.55-5.97,1.64c-1.66,1.09-2.9,2.62-3.73,4.58-.83,1.96-1.24,4.23-1.24,6.82v.3Z"/>
        <path class="cls-1" d="m347.9,115.09c-3.98,0-7.38-.47-10.2-1.39-2.82-.93-5.13-2.09-6.92-3.48-1.79-1.39-3.12-2.79-3.98-4.18-.86-1.39-1.33-2.55-1.39-3.48-.07-.73.15-1.31.65-1.74.5-.43,1.05-.65,1.64-.65h7.86c.26,0,.5.03.7.1.2.07.46.27.8.6.86.73,1.77,1.49,2.74,2.29.96.8,2.11,1.48,3.43,2.04,1.33.56,2.99.85,4.98.85,2.59,0,4.76-.51,6.52-1.54,1.76-1.03,2.64-2.5,2.64-4.43,0-1.39-.38-2.52-1.14-3.38-.76-.86-2.17-1.64-4.23-2.34-2.06-.7-4.98-1.44-8.76-2.24-3.72-.86-6.8-1.96-9.26-3.28-2.46-1.33-4.28-2.99-5.47-4.98-1.19-1.99-1.79-4.31-1.79-6.97s.78-5.06,2.34-7.42c1.56-2.35,3.88-4.3,6.97-5.82,3.09-1.53,6.92-2.29,11.5-2.29,3.58,0,6.7.45,9.36,1.34,2.65.9,4.86,2.01,6.62,3.33,1.76,1.33,3.1,2.67,4.03,4.03.93,1.36,1.43,2.54,1.49,3.53.07.73-.13,1.31-.6,1.74-.47.43-1,.65-1.59.65h-7.37c-.33,0-.63-.07-.9-.2-.27-.13-.53-.3-.8-.5-.73-.66-1.53-1.38-2.39-2.14-.86-.76-1.91-1.41-3.14-1.94-1.23-.53-2.84-.8-4.83-.8-2.52,0-4.45.55-5.77,1.64-1.33,1.09-1.99,2.47-1.99,4.13,0,1.13.31,2.11.95,2.94.63.83,1.91,1.61,3.83,2.34,1.92.73,4.84,1.49,8.76,2.29,4.45.8,7.98,1.98,10.6,3.53,2.62,1.56,4.48,3.35,5.57,5.38,1.09,2.03,1.64,4.27,1.64,6.72,0,2.99-.88,5.67-2.64,8.06-1.76,2.39-4.35,4.27-7.76,5.62-3.42,1.36-7.65,2.04-12.69,2.04Z"/>
        <path class="cls-1" d="m293.41,173.51c-7.37,0-13.21-2.12-17.52-6.37-4.31-4.25-6.64-10.29-6.97-18.12-.07-.66-.1-1.51-.1-2.54s.03-1.84.1-2.44c.26-5.04,1.41-9.37,3.43-12.99,2.02-3.62,4.83-6.4,8.41-8.36,3.58-1.96,7.8-2.94,12.64-2.94,5.38,0,9.89,1.11,13.54,3.33,3.65,2.22,6.4,5.31,8.26,9.26,1.86,3.95,2.79,8.51,2.79,13.69v2.09c0,.66-.23,1.23-.7,1.69-.47.47-1.06.7-1.79.7h-33.05v.8c.07,2.32.51,4.46,1.34,6.42.83,1.96,2.06,3.53,3.68,4.73,1.63,1.19,3.57,1.79,5.82,1.79,1.86,0,3.42-.28,4.68-.85,1.26-.56,2.29-1.21,3.09-1.94.8-.73,1.36-1.33,1.69-1.79.6-.8,1.08-1.28,1.44-1.44.36-.16.91-.25,1.64-.25h8.56c.66,0,1.21.2,1.64.6.43.4.61.9.55,1.49-.07,1.06-.61,2.36-1.64,3.88-1.03,1.53-2.51,3.02-4.43,4.48-1.93,1.46-4.33,2.67-7.22,3.63-2.89.96-6.19,1.44-9.9,1.44Zm-10.95-31.36h22v-.3c0-2.59-.43-4.86-1.29-6.82-.86-1.96-2.12-3.48-3.78-4.58-1.66-1.1-3.65-1.64-5.97-1.64s-4.31.55-5.97,1.64c-1.66,1.09-2.9,2.62-3.73,4.58-.83,1.96-1.24,4.23-1.24,6.82v.3Z"/>
        <path class="cls-1" d="m348.16,173.51c-3.98,0-7.38-.47-10.2-1.39-2.82-.93-5.13-2.09-6.92-3.48-1.79-1.39-3.12-2.79-3.98-4.18-.86-1.39-1.33-2.55-1.39-3.48-.07-.73.15-1.31.65-1.74.5-.43,1.05-.65,1.64-.65h7.86c.26,0,.5.03.7.1.2.07.46.27.8.6.86.73,1.77,1.49,2.74,2.29.96.8,2.11,1.48,3.43,2.04,1.33.56,2.99.85,4.98.85,2.59,0,4.76-.51,6.52-1.54,1.76-1.03,2.64-2.5,2.64-4.43,0-1.39-.38-2.52-1.14-3.38-.76-.86-2.17-1.64-4.23-2.34-2.06-.7-4.98-1.44-8.76-2.24-3.72-.86-6.8-1.96-9.26-3.28-2.46-1.33-4.28-2.99-5.47-4.98-1.19-1.99-1.79-4.31-1.79-6.97s.78-5.06,2.34-7.42c1.56-2.35,3.88-4.3,6.97-5.82,3.09-1.53,6.92-2.29,11.5-2.29,3.58,0,6.7.45,9.36,1.34,2.65.9,4.86,2.01,6.62,3.33,1.76,1.33,3.1,2.67,4.03,4.03.93,1.36,1.43,2.54,1.49,3.53.07.73-.13,1.31-.6,1.74-.47.43-1,.65-1.59.65h-7.37c-.33,0-.63-.07-.9-.2-.27-.13-.53-.3-.8-.5-.73-.66-1.53-1.38-2.39-2.14-.86-.76-1.91-1.41-3.14-1.94-1.23-.53-2.84-.8-4.83-.8-2.52,0-4.45.55-5.77,1.64-1.33,1.09-1.99,2.47-1.99,4.13,0,1.13.31,2.11.95,2.94.63.83,1.91,1.61,3.83,2.34,1.92.73,4.84,1.49,8.76,2.29,4.45.8,7.98,1.98,10.6,3.53,2.62,1.56,4.48,3.35,5.57,5.38,1.09,2.03,1.64,4.27,1.64,6.72,0,2.99-.88,5.67-2.64,8.06-1.76,2.39-4.35,4.27-7.76,5.62-3.42,1.36-7.65,2.04-12.69,2.04Z"/>
        <path class="cls-1" d="m404.7,172.51c-3.98,0-7.33-.7-10.05-2.09-2.72-1.39-4.75-3.47-6.07-6.22-1.33-2.75-1.99-6.19-1.99-10.3v-22.6h-7.86c-.66,0-1.23-.23-1.69-.7-.47-.46-.7-1.06-.7-1.79v-5.67c0-.66.23-1.23.7-1.69.46-.46,1.03-.7,1.69-.7h7.86v-16.52c0-.66.21-1.23.65-1.69.43-.46,1.01-.7,1.74-.7h8.06c.66,0,1.23.23,1.69.7.46.46.7,1.03.7,1.69v16.52h12.44c.66,0,1.23.23,1.69.7.46.47.7,1.03.7,1.69v5.67c0,.73-.23,1.33-.7,1.79s-1.03.7-1.69.7h-12.44v21.6c0,2.72.48,4.84,1.44,6.37.96,1.53,2.64,2.29,5.03,2.29h6.87c.66,0,1.23.23,1.69.7.46.47.7,1.03.7,1.69v6.17c0,.66-.23,1.23-.7,1.69-.47.46-1.03.7-1.69.7h-8.06Z"/>
      </g>
      <path class="cls-2" d="m423.19,28.86v18.39c0,4.12-2.2,7.92-5.76,9.99l-15.92,9.19c-3.57,2.06-7.97,2.06-11.53,0l-15.93-9.19c-3.56-2.07-5.76-5.87-5.76-9.99v-18.39c0-4.11,2.2-7.92,5.76-9.98l15.93-9.19c3.56-2.07,7.96-2.07,11.53,0l15.92,9.19c3.56,2.06,5.76,5.87,5.76,9.98Z"/>
      <path class="cls-4" d="m390.46,2.38l-22.99,13.27c-3.26,1.88-5.27,5.37-5.27,9.14v26.55c0,3.77,2.01,7.25,5.27,9.14l22.99,13.27c3.26,1.88,7.28,1.88,10.55,0l22.99-13.27c3.26-1.88,5.27-5.37,5.27-9.14v-26.55c0-3.77-2.01-7.25-5.27-9.14l-22.99-13.27c-3.26-1.88-7.28-1.88-10.55,0Z"/>
      <path class="cls-3" d="m418.67,38.78c-4.59-.05-8.43.78-11.58,1.98,2.92-3.17,5.83-7.47,7.95-13.23.37-1.01-.74-1.94-1.67-1.4-6.23,3.62-10.29,7.97-12.93,11.9,1.05-4.58,1.02-10.57-2.3-17.48-.41-.87-.88-1.74-1.4-2.64-.17-.29-.43-.47-.71-.54-.09-.02-.19-.04-.29-.04-.19,0-.39.05-.56.14s-.33.24-.44.43c-.52.89-.99,1.77-1.4,2.64-3.31,6.91-3.34,12.9-2.3,17.48-2.64-3.92-6.7-8.28-12.93-11.9-.93-.54-2.04.4-1.67,1.4,2.12,5.75,5.03,10.05,7.95,13.23-3.15-1.21-6.98-2.04-11.58-1.98-1.02.01-1.53,1.28-.8,1.99,5.44,5.32,11.05,7.47,15.45,8.27-1.67.58-3.47,1.63-5.22,3.46-.41.43-.16,1.17.43,1.26,5.78.9,9.26-1.65,10.9-3.36-.02,1.32.21,3.93.89,6.27.37,1.28,2.19,1.28,2.56,0,.68-2.34.92-4.95.89-6.27,1.63,1.71,5.12,4.25,10.9,3.36.59-.09.84-.82.43-1.26-1.75-1.83-3.55-2.88-5.22-3.46,4.4-.8,10.01-2.95,15.45-8.27.73-.71.22-1.98-.8-1.99Z"/>
    </g>
  </g>
</svg>